# xmcd CD database file
#
# Track frame offsets:
#	150
#	15350
#	39535
#	53252
#	63645
#	77327
#	92767
#	103580
#	117165
#	131325
#
# Disc length: 1926 seconds
#
# Revision: 0
# Processed by: cddbd v1.5.1PL0 Copyright (c) Steve Scherf et al.
# Submitted via: CDex 1.51
#
DISCID=6c07840a
DTITLE=Various Artist - Jazz for Sunday Mornings
DYEAR=2004
DGENRE=Jazz
TTITLE0=After Hours
TTITLE1=Back Home
TTITLE2=Boogie Woogie On St. Louis Blues
TTITLE3=Carolina Shout
TTITLE4=Cherokee
TTITLE5=Erroll's Blues
TTITLE6=Handful of Keys
TTITLE7=My Blue Heaven
TTITLE8=Pitter Panther Patter
TTITLE9=Spontaneous Combustion
EXTD=YEAR: 2004
EXTT0=
EXTT1=
EXTT2=
EXTT3=
EXTT4=
EXTT5=
EXTT6=
EXTT7=
EXTT8=
EXTT9=
PLAYORDER=
